<svg width="512" height="512" viewBox="0 0 192 192" xmlns="http://www.w3.org/2000/svg">
<path d="M96 8 L180 36 L180 110 Q180 158 96 184 Q12 158 12 110 L12 36 Z" fill="#1a1a1a"/>
<clipPath id="sc">
  <path d="M96 8 L180 36 L180 110 Q180 158 96 184 Q12 158 12 110 L12 36 Z"/>
</clipPath>
<g clip-path="url(#sc)">
  <polygon points="110,8 180,8 180,90 110,8" fill="#CC1033"/>
  <path d="M96 14 L174 40 L174 110 Q174 154 96 178 Q18 154 18 110 L18 40 Z" fill="none" stroke="white" stroke-width="2.5" opacity="0.25"/>
</g>
<g clip-path="url(#sc)" fill="white" opacity="0.92">
  <circle cx="88" cy="54" r="10"/>
  <path d="M88 64 Q82 80 78 100 Q82 100 86 100 Q88 88 90 80 Q94 92 98 104 Q102 104 106 102 Q100 84 96 68 Z"/>
  <path d="M90 70 Q100 58 114 52 Q116 56 112 58 Q104 64 96 76 Z"/>
  <circle cx="116" cy="50" r="8" fill="white"/>
  <path d="M110 50 Q116 44 122 50" fill="none" stroke="#CC1033" stroke-width="1.5" stroke-linecap="round"/>
  <path d="M116 44 Q122 50 116 56" fill="none" stroke="#CC1033" stroke-width="1.5" stroke-linecap="round"/>
  <path d="M86 72 Q76 80 72 90 Q70 88 72 84 Q78 74 88 68 Z"/>
  <path d="M82 100 Q78 116 76 130 Q80 131 84 130 Q86 116 88 104 Z"/>
  <path d="M94 102 Q96 118 100 130 Q104 130 107 128 Q104 114 98 100 Z"/>
</g>
<path d="M96 8 L180 36 L180 110 Q180 158 96 184 Q12 158 12 110 L12 36 Z" fill="none" stroke="white" stroke-width="3" opacity="0.3"/>
</svg>
